<?xml version="1.0" encoding="utf-8"?>
<!-- Generator: Adobe Illustrator 23.0.1, SVG Export Plug-In . SVG Version: 6.00 Build 0)  -->
<svg version="1.1" id="Layer_1" xmlns="http://www.w3.org/2000/svg" xmlns:xlink="http://www.w3.org/1999/xlink" x="0px" y="0px"
	 viewBox="0 0 500 499.2" style="enable-background:new 0 0 500 499.2;" xml:space="preserve">
<style type="text/css">
	.st0{fill:#946441;}
</style>
<path class="st0" d="M249.5,486C118.4,486,12.1,380.2,12.1,249.8c0-130.5,106.3-236.2,237.4-236.2s237.4,105.7,237.4,236.2
	C486.9,380.2,380.6,486,249.5,486z M249.5,1.8c-137.6,0-249.2,111-249.2,248c0,136.9,111.6,247.9,249.2,247.9s249.2-111,249.2-247.9
	C498.7,112.8,387.1,1.8,249.5,1.8z"/>
<path class="st0" d="M380.4,349.4c-12.9,16.7-28.8,30.9-47.1,41.6V190.5l-30.2,14.8l-20.8-42l98.1-48.2V349.4z M118.5,308.9V115.1
	l47.1,23.1v170.7H118.5z M249.5,62.3c-104,0-188.4,83.9-188.4,187.4c0,29.6,6.9,57.6,19.2,82.5h75.1c38.6,0,69.8-31.1,69.8-69.5
	c0-26.2-14.5-48.9-36-60.8v-52.3c6.7,3.3,11.5,5.6,18.6,9.1c38.2,19.1,64.5,58.5,64.5,104c0,64.2-52.3,116.3-116.9,116.3h-42.2
	c34.3,35.8,82.7,58.1,136.3,58.1c104.1,0,188.4-83.9,188.4-187.4S353.5,62.3,249.5,62.3z"/>
</svg>
